<svg xmlns="http://www.w3.org/2000/svg" width="20" height="20" fill="none" viewBox="0 0 20 20">
  <path fill="currentColor" fill-rule="evenodd" d="M10 2.25a7.75 7.75 0 1 0 0 15.5 7.75 7.75 0 0 0 0-15.5ZM3.75 10A6.25 6.25 0 1 1 16.25 10 6.25 6.25 0 0 1 3.75 10Zm3.35 1.38a.75.75 0 0 1 1.02-.28c.28.16.93.44 1.88.44s1.6-.28 1.88-.44a.75.75 0 0 1 .74 1.3c-.52.29-1.4.64-2.62.64s-2.1-.35-2.62-.64a.75.75 0 0 1-.28-1.02ZM6.75 8.5a.75.75 0 0 1 .75-.75h.01a.75.75 0 0 1 0 1.5H7.5a.75.75 0 0 1-.75-.75Zm5 0a.75.75 0 0 1 .75-.75h.01a.75.75 0 0 1 0 1.5h-.01a.75.75 0 0 1-.75-.75Z" clip-rule="evenodd"/>
</svg>
